<svg width="594" height="559" viewBox="0 0 594 559" fill="none" xmlns="http://www.w3.org/2000/svg">
<path d="M71.712 365.736C69.6 365.736 65.184 362.28 58.464 355.368C51.744 348.264 45.6 340.584 40.032 332.328C34.464 323.88 31.68 317.544 31.68 313.32C31.68 305.448 38.016 296.904 50.688 287.688C54.912 284.616 59.04 281.16 63.072 277.32C67.104 273.288 71.904 268.296 77.472 262.344C83.808 255.432 89.184 249.96 93.6 245.928C98.208 241.896 102.528 239.112 106.56 237.576C108.864 237.576 110.4 237.768 111.168 238.152C112.128 238.536 112.608 239.208 112.608 240.168C112.608 244.584 110.88 247.56 107.424 249.096C104.16 250.44 91.584 262.632 69.696 285.672C65.472 289.512 61.92 292.392 59.04 294.312C55.584 297 52.512 299.592 49.824 302.088C47.52 304.2 46.368 306.12 46.368 307.848C46.368 309.576 47.04 311.496 48.384 313.608C51.264 318.6 55.296 324.36 60.48 330.888C65.664 337.224 68.832 341.064 69.984 342.408L76.032 349.608C76.416 349.992 77.088 350.856 78.048 352.2C79.2 353.352 79.872 354.408 80.064 355.368C80.256 356.136 80.352 357 80.352 357.96C80.352 359.688 79.296 361.416 77.184 363.144C75.264 364.872 73.44 365.736 71.712 365.736ZM249.136 510.024C246.064 510.024 244.336 508.008 243.952 503.976C249.904 467.304 254.992 440.136 259.216 422.472C263.632 405 269.392 384.744 276.496 361.704C259.024 377.448 236.176 385.32 207.952 385.32C194.128 385.32 182.32 381.288 172.528 373.224C162.928 365.16 155.632 354.696 150.64 341.832C145.648 328.968 143.152 315.24 143.152 300.648C143.152 273 148.816 243.816 160.144 213.096C171.664 182.376 186.256 156.744 203.92 136.2C221.776 115.656 239.536 105.384 257.2 105.384C273.136 105.384 285.904 110.184 295.504 119.784C305.296 129.192 311.632 142.344 314.512 159.24C313.744 165 312.208 167.88 309.904 167.88C307.984 167.88 305.584 165.768 302.704 161.544C300.016 157.32 297.328 152.136 294.64 145.992C287.152 127.944 274.672 118.92 257.2 118.92C239.92 118.92 223.504 128.808 207.952 148.584C192.4 168.168 179.92 191.976 170.512 220.008C161.104 247.848 156.4 272.712 156.4 294.6C156.4 317.448 160.624 336.168 169.072 350.76C177.52 365.16 191.152 372.36 209.968 372.36C243.184 372.36 265.84 363.144 277.936 344.712C281.008 340.104 283.12 335.784 284.272 331.752C285.424 327.72 286 323.496 286 319.08C285.04 316.392 280.432 310.824 272.176 302.376C263.92 293.928 256.24 287.208 249.136 282.216C236.848 284.712 222.832 287.016 207.088 289.128C203.248 288.744 201.328 287.016 201.328 283.944C201.328 281.448 202.48 279.24 204.784 277.32C217.264 268.296 228.112 263.784 237.328 263.784C242.896 263.784 248.272 265.224 253.456 268.104C276.88 262.92 302.992 255.72 331.792 246.504C336.4 246.504 338.704 248.136 338.704 251.4C338.704 252.552 338.32 253.992 337.552 255.72C312.784 296.616 294.16 340.68 281.68 387.912C277.648 402.888 274.48 415.848 272.176 426.792C269.872 437.928 266.896 452.616 263.248 470.856L257.2 501.96C257.008 504.072 255.952 505.896 254.032 507.432C252.304 509.16 250.672 510.024 249.136 510.024ZM295.792 309.288C298.864 302.568 302.896 294.12 307.888 283.944C313.072 273.768 316.624 267.048 318.544 263.784C301.264 269.544 284.176 274.44 267.28 278.472C271.696 282.696 276.784 287.976 282.544 294.312C288.304 300.648 292.72 305.64 295.792 309.288ZM318.289 510.312C314.641 510.312 312.817 508.776 312.817 505.704C312.817 505.128 314.545 500.328 318.001 491.304C320.305 485.928 324.337 475.656 330.097 460.488L337.873 440.328C346.514 417.288 354.194 397.416 360.914 380.712L386.834 316.2C394.13 297.768 403.922 274.44 416.21 246.216C428.69 217.8 438.29 196.392 445.01 181.992C455.378 159.528 461.426 143.88 463.154 135.048C466.418 118.152 469.682 105.96 472.946 98.472C475.826 91.752 479.666 88.008 484.466 87.24H486.194C489.65 87.24 491.377 88.776 491.377 91.848C491.377 94.728 489.65 97.32 486.194 99.624C484.274 103.272 482.834 107.208 481.874 111.432C481.106 115.464 480.338 120.168 479.57 125.544C478.802 129.384 477.266 134.856 474.962 141.96C471.122 152.712 462.002 174.216 447.602 206.472C434.738 234.504 423.89 259.176 415.058 280.488C406.994 299.496 396.626 325.032 383.953 357.096C378.962 369.768 374.354 381.384 370.13 391.944C365.906 402.696 362.066 412.584 358.61 421.608C358.418 421.992 355.73 429 350.546 442.632C342.866 462.408 334.609 483.144 325.777 504.84C324.433 508.488 321.937 510.312 318.289 510.312ZM495.824 349.32C495.824 346.632 497.648 344.136 501.296 341.832C507.056 338.376 515.504 331.656 526.64 321.672C537.968 311.688 547.184 302.952 554.288 295.464C546.032 288.168 538.832 281.16 532.688 274.44C526.544 267.72 520.784 260.136 515.408 251.688C514.832 248.232 515.504 245.544 517.424 243.624C519.536 241.704 521.744 240.744 524.048 240.744C525.584 240.744 526.64 240.936 527.216 241.32C527.792 241.512 528.08 241.704 528.08 241.896C534.8 253.608 540.656 262.728 545.648 269.256C550.832 275.592 555.536 280.008 559.76 282.504C565.52 285.96 568.4 289.032 568.4 291.72C568.4 294.216 567.632 296.424 566.096 298.344C564.752 300.072 562.448 302.472 559.184 305.544L549.968 314.184C539.216 324.36 530.192 332.52 522.896 338.664C515.792 344.808 509.168 349.608 503.023 353.064C502.448 353.448 501.488 353.64 500.144 353.64C498.992 353.64 497.936 353.256 496.976 352.488C496.208 351.72 495.824 350.664 495.824 349.32Z" fill="black"/>
</svg>
