<svg width="677" height="665" viewBox="0 0 677 665" fill="none" xmlns="http://www.w3.org/2000/svg">
<ellipse cx="338.5" cy="332.5" rx="333.5" ry="327.5" fill="#FDEFEF" stroke="black" stroke-width="10"/>
<path d="M109.101 416.457C106.989 416.457 102.573 413.001 95.8526 406.089C89.1326 398.985 82.9886 391.305 77.4206 383.049C71.8526 374.601 69.0686 368.265 69.0686 364.041C69.0686 356.169 75.4046 347.625 88.0766 338.409C92.3006 335.337 96.4286 331.881 100.461 328.041C104.493 324.009 109.293 319.017 114.861 313.065C121.197 306.153 126.573 300.681 130.989 296.649C135.597 292.617 139.917 289.833 143.949 288.297C146.253 288.297 147.789 288.489 148.557 288.873C149.517 289.257 149.997 289.929 149.997 290.889C149.997 295.305 148.269 298.281 144.813 299.817C141.549 301.161 128.973 313.353 107.085 336.393C102.861 340.233 99.3086 343.113 96.4286 345.033C92.9726 347.721 89.9006 350.313 87.2126 352.809C84.9086 354.921 83.7566 356.841 83.7566 358.569C83.7566 360.297 84.4286 362.217 85.7726 364.329C88.6526 369.321 92.6846 375.081 97.8686 381.609C103.053 387.945 106.221 391.785 107.373 393.129L113.421 400.329C113.805 400.713 114.477 401.577 115.437 402.921C116.589 404.073 117.261 405.129 117.453 406.089C117.645 406.857 117.741 407.721 117.741 408.681C117.741 410.409 116.685 412.137 114.573 413.865C112.653 415.593 110.829 416.457 109.101 416.457ZM286.524 560.745C283.452 560.745 281.724 558.729 281.34 554.697C287.292 518.025 292.38 490.857 296.604 473.193C301.02 455.721 306.78 435.465 313.884 412.425C296.412 428.169 273.564 436.041 245.34 436.041C231.516 436.041 219.708 432.009 209.916 423.945C200.316 415.881 193.02 405.417 188.028 392.553C183.036 379.689 180.54 365.961 180.54 351.369C180.54 323.721 186.204 294.537 197.532 263.817C209.052 233.097 223.644 207.465 241.308 186.921C259.164 166.377 276.924 156.105 294.588 156.105C310.524 156.105 323.292 160.905 332.892 170.505C342.684 179.913 349.02 193.065 351.9 209.961C351.132 215.721 349.596 218.601 347.292 218.601C345.372 218.601 342.972 216.489 340.092 212.265C337.404 208.041 334.716 202.857 332.028 196.713C324.54 178.665 312.06 169.641 294.588 169.641C277.308 169.641 260.892 179.529 245.34 199.305C229.788 218.889 217.308 242.697 207.9 270.729C198.492 298.569 193.788 323.433 193.788 345.321C193.788 368.169 198.012 386.889 206.46 401.481C214.908 415.881 228.54 423.081 247.356 423.081C280.572 423.081 303.228 413.865 315.324 395.433C318.396 390.825 320.508 386.505 321.66 382.473C322.812 378.441 323.388 374.217 323.388 369.801C322.428 367.113 317.82 361.545 309.564 353.097C301.308 344.649 293.628 337.929 286.524 332.937C274.236 335.433 260.22 337.737 244.476 339.849C240.636 339.465 238.716 337.737 238.716 334.665C238.716 332.169 239.868 329.961 242.172 328.041C254.652 319.017 265.5 314.505 274.716 314.505C280.284 314.505 285.66 315.945 290.844 318.825C314.268 313.641 340.38 306.441 369.18 297.225C373.788 297.225 376.092 298.857 376.092 302.121C376.092 303.273 375.708 304.713 374.94 306.441C350.172 347.337 331.548 391.401 319.068 438.633C315.036 453.609 311.868 466.569 309.564 477.513C307.26 488.649 304.284 503.337 300.636 521.577L294.588 552.681C294.396 554.793 293.34 556.617 291.42 558.153C289.692 559.881 288.06 560.745 286.524 560.745ZM333.18 360.009C336.252 353.289 340.284 344.841 345.276 334.665C350.46 324.489 354.012 317.769 355.932 314.505C338.652 320.265 321.564 325.161 304.668 329.193C309.084 333.417 314.172 338.697 319.932 345.033C325.692 351.369 330.108 356.361 333.18 360.009ZM355.678 561.033C352.03 561.033 350.206 559.497 350.206 556.425C350.206 555.849 351.934 551.049 355.39 542.025C357.694 536.649 361.726 526.377 367.486 511.209L375.262 491.049C383.902 468.009 391.582 448.137 398.302 431.433L424.222 366.921C431.518 348.489 441.31 325.161 453.598 296.937C466.078 268.521 475.678 247.113 482.398 232.713C492.766 210.249 498.814 194.601 500.542 185.769C503.806 168.873 507.07 156.681 510.334 149.193C513.214 142.473 517.054 138.729 521.854 137.961H523.582C527.038 137.961 528.766 139.497 528.766 142.569C528.766 145.449 527.038 148.041 523.582 150.345C521.662 153.993 520.222 157.929 519.262 162.153C518.494 166.185 517.726 170.889 516.958 176.265C516.19 180.105 514.654 185.577 512.35 192.681C508.51 203.433 499.39 224.937 484.99 257.193C472.126 285.225 461.278 309.897 452.446 331.209C444.382 350.217 434.014 375.753 421.342 407.817C416.35 420.489 411.742 432.105 407.518 442.665C403.294 453.417 399.454 463.305 395.998 472.329C395.806 472.713 393.118 479.721 387.934 493.353C380.254 513.129 371.998 533.865 363.166 555.561C361.822 559.209 359.326 561.033 355.678 561.033ZM533.212 400.041C533.212 397.353 535.036 394.857 538.684 392.553C544.444 389.097 552.892 382.377 564.028 372.393C575.356 362.409 584.572 353.673 591.676 346.185C583.42 338.889 576.22 331.881 570.076 325.161C563.932 318.441 558.172 310.857 552.796 302.409C552.22 298.953 552.892 296.265 554.812 294.345C556.924 292.425 559.132 291.465 561.436 291.465C562.972 291.465 564.028 291.657 564.604 292.041C565.18 292.233 565.468 292.425 565.468 292.617C572.188 304.329 578.044 313.449 583.036 319.977C588.22 326.313 592.924 330.729 597.148 333.225C602.908 336.681 605.788 339.753 605.788 342.441C605.788 344.937 605.02 347.145 603.484 349.065C602.14 350.793 599.836 353.193 596.572 356.265L587.356 364.905C576.604 375.081 567.58 383.241 560.284 389.385C553.18 395.529 546.556 400.329 540.412 403.785C539.836 404.169 538.876 404.361 537.532 404.361C536.38 404.361 535.324 403.977 534.364 403.209C533.596 402.441 533.212 401.385 533.212 400.041Z" fill="black"/>
</svg>
