<svg width="92" height="92" viewBox="0 0 92 92" fill="none" xmlns="http://www.w3.org/2000/svg">
<path fill-rule="evenodd" clip-rule="evenodd" d="M0 46C0 20.5949 20.5949 0 46 0C71.4051 0 92 20.5949 92 46C92 71.4051 71.4051 92 46 92C20.5949 92 0 71.4051 0 46ZM23.575 38.2375V69H33.35V38.2375H23.575ZM23 28.4625C23 31.625 25.3 33.925 28.4625 33.925C31.625 33.925 33.925 31.625 33.925 28.4625C33.925 25.3 31.625 23 28.4625 23C25.5875 23 23 25.3 23 28.4625ZM59.225 69H68.425V50.025C68.425 40.5375 62.675 37.375 57.2125 37.375C52.325 37.375 48.875 40.5375 48.0125 42.55V38.2375H38.8125V69H48.5875V52.6125C48.5875 48.3 51.4625 46 54.3375 46C57.2125 46 59.225 47.4375 59.225 52.325V69Z" fill="#FDEFEF"/>
</svg>
