<svg width="96" height="96" viewBox="0 0 96 96" fill="none" xmlns="http://www.w3.org/2000/svg">
<circle cx="48" cy="48" r="48" fill="#FDEFEF"/>
<g clip-path="url(#clip0_30_82)">
<path fill-rule="evenodd" clip-rule="evenodd" d="M28.4688 29.25C25.4485 29.25 23 31.6984 23 34.7188V37.018C22.9995 37.0462 22.9995 37.0744 23 37.1026V61.2812C23 64.3016 25.4485 66.75 28.4688 66.75H67.5313C70.5516 66.75 73 64.3016 73 61.2812V37.102C73.0006 37.0743 73.0006 37.0464 73 37.0186V34.7188C73 31.6984 70.5516 29.25 67.5313 29.25H28.4688ZM68.3125 35.7197V34.7188C68.3125 34.2873 67.9628 33.9375 67.5313 33.9375H28.4688C28.0373 33.9375 27.6875 34.2873 27.6875 34.7188V35.7197L48 47.627L68.3125 35.7197ZM27.6875 41.1532V61.2812C27.6875 61.7128 28.0373 62.0625 28.4688 62.0625H67.5313C67.9628 62.0625 68.3125 61.7128 68.3125 61.2812V41.1532L49.1853 52.3657C48.4534 52.7948 47.5467 52.7948 46.8147 52.3657L27.6875 41.1532Z" fill="black"/>
</g>
<defs>
<clipPath id="clip0_30_82">
<rect width="50" height="50" fill="white" transform="translate(23 23)"/>
</clipPath>
</defs>
</svg>
