<svg width="92" height="92" viewBox="0 0 92 92" fill="none" xmlns="http://www.w3.org/2000/svg">
<path fill-rule="evenodd" clip-rule="evenodd" d="M0 46C0 20.5949 20.5949 0 46 0C71.4051 0 92 20.5949 92 46C92 71.4051 71.4051 92 46 92C20.5949 92 0 71.4051 0 46ZM23 46.4817C23 33.8211 33.269 23.552 45.9296 23.552C58.5902 23.552 68.8593 33.8211 69 46.4817C69 56.6101 62.529 65.1911 53.3853 68.2859C52.2599 68.4266 51.8379 67.7233 51.8379 67.1606V60.8303C51.8379 58.7202 51.1346 57.3135 50.2906 56.6101C55.3548 56.0474 60.7003 54.2187 60.7003 45.3563C60.7003 42.8242 59.7156 40.7141 58.3089 39.1667C58.32 39.1225 58.3354 39.067 58.3539 39.0008C58.5692 38.2239 59.194 35.9694 58.0275 33.1178C58.0275 33.1178 56.0581 32.5551 51.6972 35.5092C49.8685 35.0872 47.899 34.8058 45.9296 34.8058C43.9603 34.8058 41.9909 34.9465 40.1621 35.5092C35.8012 32.5551 33.8318 33.1178 33.8318 33.1178C32.5885 36.1569 33.3801 38.5178 33.5423 39.0013L33.5505 39.026C32.003 40.7141 31.1589 42.6835 31.1589 45.2156C31.1589 54.078 36.5046 56.0474 41.5689 56.6101C41.0061 57.1728 40.3028 58.1575 40.1621 59.7049C38.896 60.2676 35.6606 61.2523 33.5505 57.7355C33.5505 57.7355 32.2844 55.4847 30.0336 55.3441C30.0336 55.3441 27.783 55.3441 29.8931 56.7508C29.8931 56.7508 31.4404 57.4541 32.425 60.1269C32.425 60.1269 33.8318 64.6285 40.1621 63.2217V67.1606C40.1621 67.7233 39.7401 68.4266 38.6147 68.2859C29.6116 65.1911 23 56.6101 23 46.4817Z" fill="#FDEFEF"/>
</svg>
